#N canvas 0 22 1009 720 10;
#N canvas 0 22 450 300 (subpatch) 0;
#X array COVID19SPIKEINHIBITION 1273 float 0;
#X coords 0 30 1272 -10 400 140 1;
#X restore 450 -34 graph;
#X obj 469 240 tabplay~;
#X obj 485 303 dac~;
#X obj 485 273 *~ 0.05;
#X msg 471 174 bang;
#X obj 471 130 tgl 15 0 empty empty empty 17 7 0 10 -262144 -1 -1 0
1;
#X obj 545 149 loadbang;
#X obj 745 128 tgl 15 0 empty empty empty 17 7 0 10 -262144 -1 -1 0
1;
#X obj 805 242 loadbang;
#X obj 731 299 tabread;
#X obj 743 203 counter;
#X obj 742 225 t f f;
#X floatatom 735 258 5 0 0 0 - - -;
#X floatatom 731 322 5 0 0 0 - - -;
#X obj 471 151 metro 1000;
#X text 454 326 Experimental pulsed Noise;
#X msg 805 282 set COVID19SPIKEINHIBITION;
#X msg 545 189 set COVID19SPIKEINHIBITION;
#N canvas 142 161 784 478 Proteodic_Process 0;
#X obj 88 23 inlet;
#X obj 58 54 route 1 2 3 4 5 6 7 8 9 10 11 12 13 14 15 16 17 18 19
20;
#X msg 20 90 220;
#X msg 97 90 311.1;
#X msg 142 90 349.2;
#X msg 186 90 392;
#X msg 220 91 440;
#X msg 256 91 466.2;
#X msg 301 91 493.9;
#X msg 346 91 523.3;
#X msg 389 91 587.3;
#X msg 52 90 261.6;
#X msg 435 91 0;
#X obj 205 349 outlet;
#X connect 0 0 1 0;
#X connect 1 0 2 0;
#X connect 1 1 11 0;
#X connect 1 2 3 0;
#X connect 1 3 4 0;
#X connect 1 4 4 0;
#X connect 1 5 4 0;
#X connect 1 6 4 0;
#X connect 1 7 5 0;
#X connect 1 8 5 0;
#X connect 1 9 5 0;
#X connect 1 10 5 0;
#X connect 1 11 6 0;
#X connect 1 12 6 0;
#X connect 1 13 6 0;
#X connect 1 14 6 0;
#X connect 1 15 7 0;
#X connect 1 16 8 0;
#X connect 1 17 9 0;
#X connect 1 18 9 0;
#X connect 1 19 10 0;
#X connect 1 20 12 0;
#X connect 2 0 13 0;
#X connect 3 0 13 0;
#X connect 4 0 13 0;
#X connect 5 0 13 0;
#X connect 6 0 13 0;
#X connect 7 0 13 0;
#X connect 8 0 13 0;
#X connect 9 0 13 0;
#X connect 10 0 13 0;
#X connect 11 0 13 0;
#X connect 12 0 13 0;
#X restore 731 341 pd Proteodic_Process;
#X obj 743 148 metro 250;
#X text 768 126 <- Start there \, Stop clicking twice;
#X obj 6 -57 loadbang;
#X text 780 640 GhostLab_2020;
#N canvas 0 22 470 360 MIDI_OUT 0;
#X obj 59 44 inlet;
#X obj 172 302 noteout;
#X obj 266 57 loadbang;
#X obj 172 276 makenote;
#X floatatom 163 161 0 0 0 0 - - -;
#X obj 172 250 f;
#X floatatom 207 161 0 0 0 0 - - -;
#X floatatom 250 161 0 0 0 0 - - -;
#X msg 242 110 60;
#X msg 271 110 64;
#X msg 299 110 250;
#X text 161 140 pitch;
#X text 206 140 vel;
#X text 242 141 length;
#X obj 155 43 inlet;
#X obj 155 71 ftom;
#X msg 366 138 230;
#X connect 0 0 5 0;
#X connect 2 0 8 0;
#X connect 2 0 9 0;
#X connect 2 0 10 0;
#X connect 3 0 1 0;
#X connect 3 1 1 1;
#X connect 4 0 5 1;
#X connect 5 0 3 0;
#X connect 6 0 3 1;
#X connect 7 0 3 2;
#X connect 8 0 4 0;
#X connect 9 0 6 0;
#X connect 10 0 7 0;
#X connect 14 0 15 0;
#X connect 15 0 4 0;
#X connect 16 0 7 0;
#X restore 654 407 pd MIDI_OUT;
#X obj 743 172 t b b;
#X msg 65 -58 \; COVID19SPIKEINHIBITION resize 1273 \; COVID19SPIKEINHIBITION
0 0 0 0 0 6 19 16 8 13 5 1 13 8 5 4 14 3 11 11 14 11 17 13 7 7 3 1
7 3 7 7 1 13 8 7 3 7 7 3 6 15 7 7 8 15 9 6 5 15 5 9 2 9 8 1 2 9 17
1 8 20 9 19 20 4 20 13 9 19 12 14 19 13 1 8 14 12 8 11 9 8 3 14 10
8 10 13 2 5 14 10 8 18 11 9 14 13 12 9 10 5 5 3 2 10 9 1 3 9 11 1 8
11 5 11 4 3 6 16 10 13 17 19 13 11 8 14 14 13 17 3 11 8 14 4 12 8 4
11 19 5 6 10 10 5 9 1 9 5 5 11 7 10 1 3 5 17 6 10 11 6 6 9 9 12 4 14
19 17 10 18 12 6 5 17 20 16 6 1 10 3 5 17 5 1 14 18 4 17 16 2 13 1
11 16 7 9 2 4 2 6 6 17 10 13 14 12 2 4 5 19 6 5 16 8 17 5 5 1 16 4
2 3 12 4 17 3 15 8 16 19 1 13 1 7 17 11 5 18 13 3 12 1 8 5 7 14 3 15
13 6 2 2 8 10 2 3 2 18 9 14 2 2 18 9 8 12 12 6 5 19 6 12 8 3 12 8 18
1 6 9 8 18 11 9 12 5 14 2 14 5 13 11 8 18 3 8 9 11 10 8 5 3 3 9 2 1
17 10 3 3 8 12 13 5 8 6 10 8 2 12 2 10 12 10 5 5 11 12 8 13 1 8 2 3
2 6 3 3 8 3 11 12 9 13 1 9 2 3 10 17 12 10 2 9 8 13 12 10 14 19 8 5
10 12 6 5 1 9 1 10 17 18 19 2 15 12 15 2 17 4 9 12 8 2 2 1 2 1 17 6
20 1 3 6 9 6 1 2 8 8 2 3 6 19 12 2 9 15 14 11 6 8 8 4 4 8 5 6 8 1 10
17 13 12 2 7 9 8 11 18 2 2 9 11 1 8 7 11 1 19 12 13 9 17 1 2 11 2 8
6 5 13 10 17 8 8 11 14 9 17 3 18 13 3 4 13 3 4 11 4 8 9 12 3 17 10
17 1 1 17 11 13 9 4 4 6 13 19 9 12 13 5 12 2 17 5 14 12 6 10 13 11
12 14 5 2 9 1 6 8 2 18 10 8 12 6 7 17 3 1 19 12 8 8 8 10 3 7 14 6 3
11 1 7 9 19 15 6 7 11 5 3 6 13 6 15 3 5 4 8 9 14 6 6 5 3 9 6 17 10
6 4 9 2 9 3 10 10 3 19 2 5 3 10 14 2 1 8 3 15 6 19 2 9 9 3 12 3 2 5
3 18 2 18 18 4 3 10 6 12 6 12 19 3 2 7 9 1 2 1 9 4 9 11 7 14 19 3 10
10 5 16 14 2 1 9 8 7 1 2 18 6 12 17 5 10 3 1 6 3 19 5 18 20 6 4 6 8
12 11 2 16 9 2 5 4 5 14 6 7 10 5 11 12 19 8 5 2 5 12 10 3 6 10 6 1
4 6 9 5 3 5 1 1 17 3 7 4 6 9 11 8 9 14 8 6 12 4 11 18 5 2 11 6 6 11
2 9 11 18 1 17 12 12 17 4 8 17 13 13 10 3 14 6 8 5 1 6 1 6 8 1 10 17
10 17 10 5 7 13 10 13 5 8 10 6 3 13 13 4 1 7 5 6 2 4 2 16 8 8 14 17
3 8 5 5 5 18 19 4 12 19 1 5 1 10 6 4 12 17 1 19 3 12 8 4 17 19 7 10
17 1 14 5 1 10 7 4 6 3 1 2 12 19 9 14 6 3 9 11 18 14 17 4 13 8 10 3
13 18 17 8 18 19 8 19 10 19 10 1 1 5 13 3 11 8 10 10 3 10 20 2 9 5
7 1 6 17 11 11 4 8 13 19 10 19 11 2 9 13 1 6 12 1 4 2 9 12 18 5 14
11 1 18 9 5 17 3 11 2 19 5 10 6 17 7 8 11 10 8 13 6 4 3 5 1 19 7 13
17 6 3 17 3 2 3 10 19 8 5 3 19 11 2 5 7 10 3 9 18 13 18 10 20 2 19
5 3 2 17 18 6 2 10 17 5 14 1 17 4 7 8 10 6 9 10 4 17 18 5 9 3 14 6
4 12 5 18 17 10 3 6 12 19 9 1 13 14 5 6 17 3 13 8 6 7 13 6 14 3 8 4
11 8 2 7 11 5 2 11 6 9 6 1 10 14 10 19 13 8 8 17 6 18 4 12 8 19 1 5
19 19 2 2 2 1 2 6 20 1 3 3 3 11 1 4 6 8 19 3 18 16 8 2 8 8 6 12 17
18 6 9 10 9 1 9 4 8 11 5 8 4 14 8 2 3 17 1 12 4 8 11 18 5 8 10 9 4
6 16 13 3 19 9 13 17 19 1 11 9 10 13 17 5 17 14 18 8 10 13 17 10 1
12 13 1 14 8 11 15 8 17 4 12 3 5 19 14 17 6 7 10 10 2 3 3 19 5 18 17
14 3 14 15 20 3 13 10 10 13 16 19 19 5 1 8 17 4 11 10 7 17 12 17 14
7 5 13 9 5 5 10 6 2 10 10 5 9 8 8 3 12 6 13 3 11 8 6 6 1 17 9 20 1
18 9 9 10 3 13 14 6 3 2 17 19 5 1 11 10 17 4 8 5 4 10 11 17 18 13 6
1 10 6 1 3 5 16 9 2 16 17 20 6 5 10 3 17 17 4 8 17 8 11 12 6 3 16 8
5 3 3 18 17 5 13 11 4 19 19 5 1 18 6 17 3 10 6 19 2 4 4 8 12 6 18 6
6 8 10 5 7 12 3 3 5 8 4 8 8 5 8 17 5 17 15 0 0 0 0 0 0 0 0 0 0 \;;
#X obj 805 203 route 1288;
#X connect 1 0 3 0;
#X connect 3 0 2 0;
#X connect 3 0 2 1;
#X connect 4 0 1 0;
#X connect 5 0 14 0;
#X connect 6 0 17 0;
#X connect 7 0 19 0;
#X connect 8 0 16 0;
#X connect 9 0 13 0;
#X connect 10 0 11 0;
#X connect 11 0 12 0;
#X connect 11 1 26 0;
#X connect 12 0 9 0;
#X connect 13 0 18 0;
#X connect 14 0 4 0;
#X connect 16 0 9 0;
#X connect 17 0 1 0;
#X connect 18 0 23 1;
#X connect 19 0 24 0;
#X connect 21 0 25 0;
#X connect 24 0 23 0;
#X connect 24 1 10 0;
#X connect 26 0 10 3;
